# xmcd
#
# Track frame offsets: 
#        150
#        49576
#        70424
#        86471
#        109902
#        125762
#        148424
#        181721
#        208762
#        231381
#        257538
#        285408
#
# Disc length: 4594 seconds
#
# Revision: 2
# Processed by: cddbd v1.5.2PL0 Copyright (c) Steve Scherf et al.
# Submitted via: ExactAudioCopy v1.1
#
DISCID=b411f00c
DTITLE=B.B. King - Dejavu Retro Gold Collection - Disc 2
DYEAR=2001
DGENRE=Blues
TTITLE0=B.B.'s Intro and Theme
TTITLE1=Why I Sing The Blues
TTITLE2=Outside Help
TTITLE3=Darlin' You Know I Love You
TTITLE4=Caledonia
TTITLE5=Every Day (I Have The Blues)
TTITLE6=The Letter
TTITLE7=Sweet Little Angel
TTITLE8=Guess Who
TTITLE9=Payin' The Cost To Be The Boss
TTITLE10=Jam (with Dave Brubeck)
TTITLE11=UNTITLED
EXTD=
EXTT0=
EXTT1=
EXTT2=
EXTT3=
EXTT4=
EXTT5=
EXTT6=
EXTT7=
EXTT8=
EXTT9=
EXTT10=
EXTT11=
PLAYORDER=
